<mxfile host="app.diagrams.net" agent="Mozilla/5.0 (Windows NT 10.0; Win64; x64) AppleWebKit/537.36 (KHTML, like Gecko) Chrome/135.0.0.0 Safari/537.36" version="26.2.13">
  <diagram name="Page-1" id="c4acf3e9-155e-7222-9cf6-157b1a14988f">
    <mxGraphModel dx="2307" dy="743" grid="1" gridSize="10" guides="1" tooltips="1" connect="1" arrows="1" fold="1" page="1" pageScale="1" pageWidth="1169" pageHeight="827" background="none" math="0" shadow="0">
      <root>
        <mxCell id="0" />
        <mxCell id="1" parent="0" />
        <mxCell id="qmLZUaeu7Fw5jt_uBB8d-35" value="" style="edgeStyle=orthogonalEdgeStyle;rounded=0;orthogonalLoop=1;jettySize=auto;html=1;" parent="1" source="qmLZUaeu7Fw5jt_uBB8d-1" target="qmLZUaeu7Fw5jt_uBB8d-26" edge="1">
          <mxGeometry relative="1" as="geometry" />
        </mxCell>
        <mxCell id="qmLZUaeu7Fw5jt_uBB8d-55" value="1" style="edgeLabel;html=1;align=center;verticalAlign=middle;resizable=0;points=[];" parent="qmLZUaeu7Fw5jt_uBB8d-35" vertex="1" connectable="0">
          <mxGeometry x="-0.76" y="-2" relative="1" as="geometry">
            <mxPoint as="offset" />
          </mxGeometry>
        </mxCell>
        <mxCell id="qmLZUaeu7Fw5jt_uBB8d-56" value="*" style="edgeLabel;html=1;align=center;verticalAlign=middle;resizable=0;points=[];" parent="qmLZUaeu7Fw5jt_uBB8d-35" vertex="1" connectable="0">
          <mxGeometry x="0.5543" relative="1" as="geometry">
            <mxPoint as="offset" />
          </mxGeometry>
        </mxCell>
        <mxCell id="qmLZUaeu7Fw5jt_uBB8d-1" value="Empresa" style="swimlane;fontStyle=1;align=center;verticalAlign=top;childLayout=stackLayout;horizontal=1;startSize=26;horizontalStack=0;resizeParent=1;resizeParentMax=0;resizeLast=0;collapsible=1;marginBottom=0;whiteSpace=wrap;html=1;" parent="1" vertex="1">
          <mxGeometry x="20" y="20" width="310" height="190" as="geometry">
            <mxRectangle x="20" y="20" width="90" height="30" as="alternateBounds" />
          </mxGeometry>
        </mxCell>
        <mxCell id="qmLZUaeu7Fw5jt_uBB8d-2" value="- nombre: String&lt;div&gt;- cuit: String&lt;/div&gt;" style="text;strokeColor=none;fillColor=none;align=left;verticalAlign=top;spacingLeft=4;spacingRight=4;overflow=hidden;rotatable=0;points=[[0,0.5],[1,0.5]];portConstraint=eastwest;whiteSpace=wrap;html=1;" parent="qmLZUaeu7Fw5jt_uBB8d-1" vertex="1">
          <mxGeometry y="26" width="310" height="44" as="geometry" />
        </mxCell>
        <mxCell id="qmLZUaeu7Fw5jt_uBB8d-3" value="" style="line;strokeWidth=1;fillColor=none;align=left;verticalAlign=middle;spacingTop=-1;spacingLeft=3;spacingRight=3;rotatable=0;labelPosition=right;points=[];portConstraint=eastwest;strokeColor=inherit;" parent="qmLZUaeu7Fw5jt_uBB8d-1" vertex="1">
          <mxGeometry y="70" width="310" height="8" as="geometry" />
        </mxCell>
        <mxCell id="qmLZUaeu7Fw5jt_uBB8d-4" value="&lt;div&gt;+ Empresa(nombre: String, cuit: String)&lt;/div&gt;+ calcularTotalSueldosNeto(): double&lt;div&gt;+ calcularTotalRetencines(): double&lt;/div&gt;&lt;div&gt;+ calcularTotalSueldosBruto(): double&lt;/div&gt;&lt;div&gt;+ generarRecibosDeHaberes(): void&lt;/div&gt;&lt;div&gt;+ agregarEmpleado(empleado: Empleado): void&lt;/div&gt;&lt;div&gt;+ obtenerRecibosEmitidos(): List&amp;lt;ReciboDeHaberes&amp;gt;&lt;/div&gt;" style="text;strokeColor=none;fillColor=none;align=left;verticalAlign=top;spacingLeft=4;spacingRight=4;overflow=hidden;rotatable=0;points=[[0,0.5],[1,0.5]];portConstraint=eastwest;whiteSpace=wrap;html=1;" parent="qmLZUaeu7Fw5jt_uBB8d-1" vertex="1">
          <mxGeometry y="78" width="310" height="112" as="geometry" />
        </mxCell>
        <mxCell id="qmLZUaeu7Fw5jt_uBB8d-6" value="&lt;i&gt;Empleado&lt;/i&gt;" style="swimlane;fontStyle=1;align=center;verticalAlign=top;childLayout=stackLayout;horizontal=1;startSize=26;horizontalStack=0;resizeParent=1;resizeParentMax=0;resizeLast=0;collapsible=1;marginBottom=0;whiteSpace=wrap;html=1;" parent="1" vertex="1">
          <mxGeometry x="400" y="20" width="310" height="320" as="geometry" />
        </mxCell>
        <mxCell id="qmLZUaeu7Fw5jt_uBB8d-7" value="- nombre: String&lt;div&gt;- direccion:String&lt;/div&gt;&lt;div&gt;- estadoCivil: String&lt;/div&gt;&lt;div&gt;- fechaNacimiento: LocalDate&lt;/div&gt;&lt;div&gt;- sueldoBasico: double&lt;/div&gt;" style="text;strokeColor=none;fillColor=none;align=left;verticalAlign=top;spacingLeft=4;spacingRight=4;overflow=hidden;rotatable=0;points=[[0,0.5],[1,0.5]];portConstraint=eastwest;whiteSpace=wrap;html=1;" parent="qmLZUaeu7Fw5jt_uBB8d-6" vertex="1">
          <mxGeometry y="26" width="310" height="94" as="geometry" />
        </mxCell>
        <mxCell id="qmLZUaeu7Fw5jt_uBB8d-8" value="" style="line;strokeWidth=1;fillColor=none;align=left;verticalAlign=middle;spacingTop=-1;spacingLeft=3;spacingRight=3;rotatable=0;labelPosition=right;points=[];portConstraint=eastwest;strokeColor=inherit;" parent="qmLZUaeu7Fw5jt_uBB8d-6" vertex="1">
          <mxGeometry y="120" width="310" height="8" as="geometry" />
        </mxCell>
        <mxCell id="qmLZUaeu7Fw5jt_uBB8d-9" value="&lt;div&gt;+ Empleado(nombre: String, direccion: String, estadoCivil: String, fechaNacimiento: LocalDate, sueldoBasico: double)&lt;/div&gt;&lt;div&gt;+ calcularEdad(): int&lt;/div&gt;&lt;div&gt;+ getSueldoBasico(): double&lt;/div&gt;&lt;div&gt;+ getEstadoCivil(): String&lt;/div&gt;&lt;div&gt;&lt;i&gt;+ calcularSueldoBruto(): double&lt;/i&gt;&lt;/div&gt;&lt;div&gt;&lt;i&gt;+ calcularRetenciones(): double&lt;/i&gt;&lt;/div&gt;&lt;div&gt;+ calcularSueldoNeto(): double&lt;/div&gt;&lt;div&gt;+ obtenerNombre(): String&lt;/div&gt;&lt;div&gt;+ obtenerDireccion(): String&lt;/div&gt;&lt;div&gt;&lt;i&gt;+ desgloceDeSueldo(): List&amp;lt;Concepto&amp;gt;&lt;/i&gt;&lt;/div&gt;" style="text;strokeColor=none;fillColor=none;align=left;verticalAlign=top;spacingLeft=4;spacingRight=4;overflow=hidden;rotatable=0;points=[[0,0.5],[1,0.5]];portConstraint=eastwest;whiteSpace=wrap;html=1;" parent="qmLZUaeu7Fw5jt_uBB8d-6" vertex="1">
          <mxGeometry y="128" width="310" height="192" as="geometry" />
        </mxCell>
        <mxCell id="qmLZUaeu7Fw5jt_uBB8d-10" value="EmpleadoPlantaPermanente" style="swimlane;fontStyle=1;align=center;verticalAlign=top;childLayout=stackLayout;horizontal=1;startSize=26;horizontalStack=0;resizeParent=1;resizeParentMax=0;resizeLast=0;collapsible=1;marginBottom=0;whiteSpace=wrap;html=1;" parent="1" vertex="1">
          <mxGeometry x="800" y="20" width="340" height="190" as="geometry" />
        </mxCell>
        <mxCell id="qmLZUaeu7Fw5jt_uBB8d-11" value="- cantidadHijos: int&lt;div&gt;- antiguedad: int&lt;/div&gt;" style="text;strokeColor=none;fillColor=none;align=left;verticalAlign=top;spacingLeft=4;spacingRight=4;overflow=hidden;rotatable=0;points=[[0,0.5],[1,0.5]];portConstraint=eastwest;whiteSpace=wrap;html=1;" parent="qmLZUaeu7Fw5jt_uBB8d-10" vertex="1">
          <mxGeometry y="26" width="340" height="44" as="geometry" />
        </mxCell>
        <mxCell id="qmLZUaeu7Fw5jt_uBB8d-12" value="" style="line;strokeWidth=1;fillColor=none;align=left;verticalAlign=middle;spacingTop=-1;spacingLeft=3;spacingRight=3;rotatable=0;labelPosition=right;points=[];portConstraint=eastwest;strokeColor=inherit;" parent="qmLZUaeu7Fw5jt_uBB8d-10" vertex="1">
          <mxGeometry y="70" width="340" height="8" as="geometry" />
        </mxCell>
        <mxCell id="qmLZUaeu7Fw5jt_uBB8d-13" value="&lt;div&gt;+ EmpleadoPlantaPermanente(nombre: String, direccion: String, estadoCivil: String, fechaNacimiento: LocalDate, sueldoBasico: double, cantidadHijos: int, antiguedad: int)&lt;/div&gt;&lt;div&gt;&lt;span style=&quot;background-color: transparent; color: light-dark(rgb(0, 0, 0), rgb(255, 255, 255));&quot;&gt;+ calcularSueldoBruto(): double&lt;/span&gt;&lt;/div&gt;&lt;div&gt;+ calcularRetenciones(): double&lt;/div&gt;&lt;div&gt;+ desgloceDeSueldo(): List&amp;lt;Concepto&amp;gt;&lt;/div&gt;" style="text;strokeColor=none;fillColor=none;align=left;verticalAlign=top;spacingLeft=4;spacingRight=4;overflow=hidden;rotatable=0;points=[[0,0.5],[1,0.5]];portConstraint=eastwest;whiteSpace=wrap;html=1;" parent="qmLZUaeu7Fw5jt_uBB8d-10" vertex="1">
          <mxGeometry y="78" width="340" height="112" as="geometry" />
        </mxCell>
        <mxCell id="qmLZUaeu7Fw5jt_uBB8d-14" value="EmpleadoPlantaTemporaria" style="swimlane;fontStyle=1;align=center;verticalAlign=top;childLayout=stackLayout;horizontal=1;startSize=26;horizontalStack=0;resizeParent=1;resizeParentMax=0;resizeLast=0;collapsible=1;marginBottom=0;whiteSpace=wrap;html=1;" parent="1" vertex="1">
          <mxGeometry x="800" y="250" width="340" height="200" as="geometry" />
        </mxCell>
        <mxCell id="qmLZUaeu7Fw5jt_uBB8d-15" value="- fechaFinDesignacion: LocalDate&lt;div&gt;- cantidadHorasExtra: int&lt;/div&gt;" style="text;strokeColor=none;fillColor=none;align=left;verticalAlign=top;spacingLeft=4;spacingRight=4;overflow=hidden;rotatable=0;points=[[0,0.5],[1,0.5]];portConstraint=eastwest;whiteSpace=wrap;html=1;" parent="qmLZUaeu7Fw5jt_uBB8d-14" vertex="1">
          <mxGeometry y="26" width="340" height="44" as="geometry" />
        </mxCell>
        <mxCell id="qmLZUaeu7Fw5jt_uBB8d-16" value="" style="line;strokeWidth=1;fillColor=none;align=left;verticalAlign=middle;spacingTop=-1;spacingLeft=3;spacingRight=3;rotatable=0;labelPosition=right;points=[];portConstraint=eastwest;strokeColor=inherit;" parent="qmLZUaeu7Fw5jt_uBB8d-14" vertex="1">
          <mxGeometry y="70" width="340" height="8" as="geometry" />
        </mxCell>
        <mxCell id="qmLZUaeu7Fw5jt_uBB8d-17" value="&lt;div&gt;+ EmpleadoPlantaTemporaria(nombre: String, direccion: String, estadoCivil: String, fechaNacimiento: LocalDate, sueldoBasico: double, fechaFinDesignacion: LocalDate, cantidadHorasExtra: int)&lt;/div&gt;&lt;div&gt;&lt;span style=&quot;background-color: transparent; color: light-dark(rgb(0, 0, 0), rgb(255, 255, 255));&quot;&gt;+ calcularSueldoBruto(): double&lt;/span&gt;&lt;/div&gt;&lt;div&gt;+ calcularRetenciones(): double&lt;/div&gt;&lt;div&gt;+ desgloceDeSueldo(): List&amp;lt;Concepto&amp;gt;&lt;/div&gt;" style="text;strokeColor=none;fillColor=none;align=left;verticalAlign=top;spacingLeft=4;spacingRight=4;overflow=hidden;rotatable=0;points=[[0,0.5],[1,0.5]];portConstraint=eastwest;whiteSpace=wrap;html=1;" parent="qmLZUaeu7Fw5jt_uBB8d-14" vertex="1">
          <mxGeometry y="78" width="340" height="122" as="geometry" />
        </mxCell>
        <mxCell id="qmLZUaeu7Fw5jt_uBB8d-18" value="EmpleadoContratado" style="swimlane;fontStyle=1;align=center;verticalAlign=top;childLayout=stackLayout;horizontal=1;startSize=26;horizontalStack=0;resizeParent=1;resizeParentMax=0;resizeLast=0;collapsible=1;marginBottom=0;whiteSpace=wrap;html=1;" parent="1" vertex="1">
          <mxGeometry x="800" y="490" width="340" height="200" as="geometry" />
        </mxCell>
        <mxCell id="qmLZUaeu7Fw5jt_uBB8d-19" value="- numeroContrato: int&lt;div&gt;- medioDePago: String&lt;/div&gt;" style="text;strokeColor=none;fillColor=none;align=left;verticalAlign=top;spacingLeft=4;spacingRight=4;overflow=hidden;rotatable=0;points=[[0,0.5],[1,0.5]];portConstraint=eastwest;whiteSpace=wrap;html=1;" parent="qmLZUaeu7Fw5jt_uBB8d-18" vertex="1">
          <mxGeometry y="26" width="340" height="44" as="geometry" />
        </mxCell>
        <mxCell id="qmLZUaeu7Fw5jt_uBB8d-20" value="" style="line;strokeWidth=1;fillColor=none;align=left;verticalAlign=middle;spacingTop=-1;spacingLeft=3;spacingRight=3;rotatable=0;labelPosition=right;points=[];portConstraint=eastwest;strokeColor=inherit;" parent="qmLZUaeu7Fw5jt_uBB8d-18" vertex="1">
          <mxGeometry y="70" width="340" height="8" as="geometry" />
        </mxCell>
        <mxCell id="qmLZUaeu7Fw5jt_uBB8d-21" value="&lt;div&gt;+ EmpleadoContratado(nombre: String, direccion: String, estadoCivil: String, fechaNacimiento: LocalDate, sueldoBasico: double, numeroContrato: int, medioDePago: String)&lt;/div&gt;&lt;div&gt;&lt;span style=&quot;background-color: transparent; color: light-dark(rgb(0, 0, 0), rgb(255, 255, 255));&quot;&gt;+ calcularSueldoBruto(): double&lt;/span&gt;&lt;/div&gt;&lt;div&gt;+ calcularRetenciones(): double&lt;/div&gt;&lt;div&gt;+ desgloceDeSueldo(): List&amp;lt;Concepto&amp;gt;&lt;/div&gt;" style="text;strokeColor=none;fillColor=none;align=left;verticalAlign=top;spacingLeft=4;spacingRight=4;overflow=hidden;rotatable=0;points=[[0,0.5],[1,0.5]];portConstraint=eastwest;whiteSpace=wrap;html=1;" parent="qmLZUaeu7Fw5jt_uBB8d-18" vertex="1">
          <mxGeometry y="78" width="340" height="122" as="geometry" />
        </mxCell>
        <mxCell id="qmLZUaeu7Fw5jt_uBB8d-22" value="Concepto" style="swimlane;fontStyle=1;align=center;verticalAlign=top;childLayout=stackLayout;horizontal=1;startSize=26;horizontalStack=0;resizeParent=1;resizeParentMax=0;resizeLast=0;collapsible=1;marginBottom=0;whiteSpace=wrap;html=1;" parent="1" vertex="1">
          <mxGeometry x="20" y="570" width="310" height="140" as="geometry" />
        </mxCell>
        <mxCell id="qmLZUaeu7Fw5jt_uBB8d-23" value="- nombre: String&lt;div&gt;- valor: double&lt;/div&gt;" style="text;strokeColor=none;fillColor=none;align=left;verticalAlign=top;spacingLeft=4;spacingRight=4;overflow=hidden;rotatable=0;points=[[0,0.5],[1,0.5]];portConstraint=eastwest;whiteSpace=wrap;html=1;" parent="qmLZUaeu7Fw5jt_uBB8d-22" vertex="1">
          <mxGeometry y="26" width="310" height="44" as="geometry" />
        </mxCell>
        <mxCell id="qmLZUaeu7Fw5jt_uBB8d-24" value="" style="line;strokeWidth=1;fillColor=none;align=left;verticalAlign=middle;spacingTop=-1;spacingLeft=3;spacingRight=3;rotatable=0;labelPosition=right;points=[];portConstraint=eastwest;strokeColor=inherit;" parent="qmLZUaeu7Fw5jt_uBB8d-22" vertex="1">
          <mxGeometry y="70" width="310" height="8" as="geometry" />
        </mxCell>
        <mxCell id="qmLZUaeu7Fw5jt_uBB8d-25" value="&lt;div&gt;+ Concepto(nombre: String, valor: double)&lt;/div&gt;+ getNombre(): String&lt;br&gt;&lt;div&gt;+ getValor(): String&lt;/div&gt;" style="text;strokeColor=none;fillColor=none;align=left;verticalAlign=top;spacingLeft=4;spacingRight=4;overflow=hidden;rotatable=0;points=[[0,0.5],[1,0.5]];portConstraint=eastwest;whiteSpace=wrap;html=1;" parent="qmLZUaeu7Fw5jt_uBB8d-22" vertex="1">
          <mxGeometry y="78" width="310" height="62" as="geometry" />
        </mxCell>
        <mxCell id="qmLZUaeu7Fw5jt_uBB8d-26" value="ReciboDeHaberes" style="swimlane;fontStyle=1;align=center;verticalAlign=top;childLayout=stackLayout;horizontal=1;startSize=26;horizontalStack=0;resizeParent=1;resizeParentMax=0;resizeLast=0;collapsible=1;marginBottom=0;whiteSpace=wrap;html=1;" parent="1" vertex="1">
          <mxGeometry x="20" y="310" width="310" height="190" as="geometry" />
        </mxCell>
        <mxCell id="qmLZUaeu7Fw5jt_uBB8d-27" value="- nombreEmpleado: String&lt;div&gt;- direccion: String&lt;/div&gt;&lt;div&gt;- fechaDeEmision: LocalDate&lt;/div&gt;&lt;div&gt;- sueldoNeto: double&lt;/div&gt;&lt;div&gt;- sueldoBruto: double&lt;/div&gt;" style="text;strokeColor=none;fillColor=none;align=left;verticalAlign=top;spacingLeft=4;spacingRight=4;overflow=hidden;rotatable=0;points=[[0,0.5],[1,0.5]];portConstraint=eastwest;whiteSpace=wrap;html=1;" parent="qmLZUaeu7Fw5jt_uBB8d-26" vertex="1">
          <mxGeometry y="26" width="310" height="94" as="geometry" />
        </mxCell>
        <mxCell id="qmLZUaeu7Fw5jt_uBB8d-28" value="" style="line;strokeWidth=1;fillColor=none;align=left;verticalAlign=middle;spacingTop=-1;spacingLeft=3;spacingRight=3;rotatable=0;labelPosition=right;points=[];portConstraint=eastwest;strokeColor=inherit;" parent="qmLZUaeu7Fw5jt_uBB8d-26" vertex="1">
          <mxGeometry y="120" width="310" height="8" as="geometry" />
        </mxCell>
        <mxCell id="qmLZUaeu7Fw5jt_uBB8d-29" value="&lt;div&gt;+ ReciboDeHaberes(nombreEmpleado: String, direccion: String, fechaDeEmision: LocalDate, sueldoNeto: double, sueldoBruto: double, desgloceDeConceptos: List&amp;lt;Concepto&amp;gt;)&lt;/div&gt;" style="text;strokeColor=none;fillColor=none;align=left;verticalAlign=top;spacingLeft=4;spacingRight=4;overflow=hidden;rotatable=0;points=[[0,0.5],[1,0.5]];portConstraint=eastwest;whiteSpace=wrap;html=1;" parent="qmLZUaeu7Fw5jt_uBB8d-26" vertex="1">
          <mxGeometry y="128" width="310" height="62" as="geometry" />
        </mxCell>
        <mxCell id="qmLZUaeu7Fw5jt_uBB8d-36" style="edgeStyle=orthogonalEdgeStyle;rounded=0;orthogonalLoop=1;jettySize=auto;html=1;entryX=0.5;entryY=0;entryDx=0;entryDy=0;exitX=0.503;exitY=1.016;exitDx=0;exitDy=0;exitPerimeter=0;" parent="1" source="qmLZUaeu7Fw5jt_uBB8d-29" target="qmLZUaeu7Fw5jt_uBB8d-22" edge="1">
          <mxGeometry relative="1" as="geometry" />
        </mxCell>
        <mxCell id="qmLZUaeu7Fw5jt_uBB8d-57" value="1" style="edgeLabel;html=1;align=center;verticalAlign=middle;resizable=0;points=[];" parent="qmLZUaeu7Fw5jt_uBB8d-36" vertex="1" connectable="0">
          <mxGeometry x="-0.6767" y="-1" relative="1" as="geometry">
            <mxPoint as="offset" />
          </mxGeometry>
        </mxCell>
        <mxCell id="qmLZUaeu7Fw5jt_uBB8d-58" value="*" style="edgeLabel;html=1;align=center;verticalAlign=middle;resizable=0;points=[];" parent="qmLZUaeu7Fw5jt_uBB8d-36" vertex="1" connectable="0">
          <mxGeometry x="0.4929" relative="1" as="geometry">
            <mxPoint as="offset" />
          </mxGeometry>
        </mxCell>
        <mxCell id="qmLZUaeu7Fw5jt_uBB8d-38" value="" style="edgeStyle=orthogonalEdgeStyle;rounded=0;orthogonalLoop=1;jettySize=auto;html=1;entryX=-0.006;entryY=0.031;entryDx=0;entryDy=0;entryPerimeter=0;" parent="1" source="qmLZUaeu7Fw5jt_uBB8d-4" target="qmLZUaeu7Fw5jt_uBB8d-9" edge="1">
          <mxGeometry relative="1" as="geometry" />
        </mxCell>
        <mxCell id="qmLZUaeu7Fw5jt_uBB8d-60" value="1" style="edgeLabel;html=1;align=center;verticalAlign=middle;resizable=0;points=[];" parent="qmLZUaeu7Fw5jt_uBB8d-38" vertex="1" connectable="0">
          <mxGeometry x="-0.6869" relative="1" as="geometry">
            <mxPoint as="offset" />
          </mxGeometry>
        </mxCell>
        <mxCell id="qmLZUaeu7Fw5jt_uBB8d-62" value="*" style="edgeLabel;html=1;align=center;verticalAlign=middle;resizable=0;points=[];" parent="qmLZUaeu7Fw5jt_uBB8d-38" vertex="1" connectable="0">
          <mxGeometry x="0.4089" relative="1" as="geometry">
            <mxPoint as="offset" />
          </mxGeometry>
        </mxCell>
        <mxCell id="qmLZUaeu7Fw5jt_uBB8d-45" value="Extends" style="endArrow=block;endSize=16;endFill=0;html=1;rounded=0;entryX=-0.002;entryY=-0.024;entryDx=0;entryDy=0;entryPerimeter=0;exitX=0;exitY=0.018;exitDx=0;exitDy=0;exitPerimeter=0;" parent="1" source="qmLZUaeu7Fw5jt_uBB8d-13" edge="1">
          <mxGeometry width="160" relative="1" as="geometry">
            <mxPoint x="779.32" y="100.31" as="sourcePoint" />
            <mxPoint x="710" y="100" as="targetPoint" />
          </mxGeometry>
        </mxCell>
        <mxCell id="qmLZUaeu7Fw5jt_uBB8d-48" value="Extends" style="endArrow=block;endSize=16;endFill=0;html=1;rounded=0;entryX=1;entryY=0.5;entryDx=0;entryDy=0;" parent="1" edge="1">
          <mxGeometry width="160" relative="1" as="geometry">
            <mxPoint x="520" y="600" as="sourcePoint" />
            <mxPoint x="520" y="340" as="targetPoint" />
          </mxGeometry>
        </mxCell>
        <mxCell id="qmLZUaeu7Fw5jt_uBB8d-52" value="" style="endArrow=none;html=1;rounded=0;entryX=-0.001;entryY=0.255;entryDx=0;entryDy=0;entryPerimeter=0;" parent="1" target="qmLZUaeu7Fw5jt_uBB8d-21" edge="1">
          <mxGeometry width="50" height="50" relative="1" as="geometry">
            <mxPoint x="520" y="599" as="sourcePoint" />
            <mxPoint x="820" y="540" as="targetPoint" />
          </mxGeometry>
        </mxCell>
        <mxCell id="qmLZUaeu7Fw5jt_uBB8d-53" value="" style="endArrow=none;html=1;rounded=0;entryX=-0.001;entryY=0.255;entryDx=0;entryDy=0;entryPerimeter=0;" parent="1" edge="1">
          <mxGeometry width="50" height="50" relative="1" as="geometry">
            <mxPoint x="600" y="400" as="sourcePoint" />
            <mxPoint x="800" y="400" as="targetPoint" />
          </mxGeometry>
        </mxCell>
        <mxCell id="qmLZUaeu7Fw5jt_uBB8d-47" value="Extends" style="endArrow=block;endSize=16;endFill=0;html=1;rounded=0;entryX=1;entryY=0.5;entryDx=0;entryDy=0;" parent="1" edge="1">
          <mxGeometry width="160" relative="1" as="geometry">
            <mxPoint x="600" y="400" as="sourcePoint" />
            <mxPoint x="600.1700000000001" y="340" as="targetPoint" />
          </mxGeometry>
        </mxCell>
      </root>
    </mxGraphModel>
  </diagram>
</mxfile>
